<svg width="22" height="22" viewBox="0 0 22 22" fill="none" xmlns="http://www.w3.org/2000/svg">
<rect width="22" height="22" fill="#0A66C2"/>
<g clip-path="url(#clip0_136_3703)">
<path d="M18.6676 2H3.32891C2.59414 2 2 2.58008 2 3.29727V18.6992C2 19.4164 2.59414 20 3.32891 20H18.6676C19.4023 20 20 19.4164 20 18.7027V3.29727C20 2.58008 19.4023 2 18.6676 2ZM7.34023 17.3387H4.66836V8.74648H7.34023V17.3387ZM6.0043 7.57578C5.14648 7.57578 4.45391 6.8832 4.45391 6.02891C4.45391 5.17461 5.14648 4.48203 6.0043 4.48203C6.85859 4.48203 7.55117 5.17461 7.55117 6.02891C7.55117 6.87969 6.85859 7.57578 6.0043 7.57578ZM17.3387 17.3387H14.6703V13.1621C14.6703 12.1672 14.6527 10.884 13.2816 10.884C11.893 10.884 11.682 11.9703 11.682 13.0918V17.3387H9.01719V8.74648H11.5766V9.9207H11.6117C11.9668 9.2457 12.8387 8.53203 14.1359 8.53203C16.8395 8.53203 17.3387 10.3109 17.3387 12.6242V17.3387V17.3387Z" fill="white"/>
</g>
<defs>
<clipPath id="clip0_136_3703">
<rect width="18" height="18" fill="white" transform="translate(2 2)"/>
</clipPath>
</defs>
</svg>
